<?xml version="1.0" encoding="iso-8859-1"?>
<!-- Generator: Adobe Illustrator 16.0.0, SVG Export Plug-In . SVG Version: 6.00 Build 0)  -->
<!DOCTYPE svg PUBLIC "-//W3C//DTD SVG 1.1//EN" "http://www.w3.org/Graphics/SVG/1.1/DTD/svg11.dtd">
<svg version="1.1" id="Capa_1" xmlns="http://www.w3.org/2000/svg" xmlns:xlink="http://www.w3.org/1999/xlink" x="0px" y="0px"
	 width="703.61px" height="703.61px" viewBox="0 0 703.61 703.61" style="enable-background:new 0 0 703.61 703.61;"
	 xml:space="preserve">
<g>
	<path d="M646.305,443.811l-94.7-197.5c-4.5-10.4-13.8-19.6-24.3-26.6c-1.1,27.7-8.1,54.3-20.8,78.5c1.1,1.1,1.1,2.3,2.3,3.4
		l64.7,136.2h-442.2l64.7-136.2c0-1.1,1.1-2.3,1.1-3.4c-12.6-23-20.8-49.6-20.8-78.5l0,0c-10.4,7-18.5,16.2-24.3,26.6l-94.7,197.5
		c-9.2,19.6-11.5,33.4-11.5,51.9v169.8v23c0,8.1,7,15.1,15.1,15.1h76.2c8.1,0,13.8-7,13.8-15.1v-23v-25.5h401.8v25.5v23
		c0,8.1,5.8,15.1,13.8,15.1h76.2c8.1,0,15.1-7,15.1-15.1v-23v-171C657.805,477.211,655.505,462.311,646.305,443.811z
		 M145.205,582.311c-26.6,0-47.4-21.9-47.4-47.4c0-26.6,20.8-47.399,47.4-47.399s47.4,20.8,47.4,47.399
		C192.405,561.511,170.505,582.311,145.205,582.311z M558.405,582.311c-26.6,0-47.399-21.9-47.399-47.4
		c0-26.6,20.8-47.399,47.399-47.399c26.601,0,47.4,20.8,47.4,47.399C605.805,561.511,585.005,582.311,558.405,582.311z
		 M198.205,212.911c0-48.5,23-91.1,58.9-118.9c8.1-5.8,12.6,0,10.4,3.4c-24.3,57.7-7,114.3,34.7,125.8
		c-12.6-28.9-17.4-62.3-13.8-95.8c5.8-49.6,30-93.6,65.8-123.6c3.399-3.4,7-4.5,9.199-3.4c2.301,0,4.5,2.3,3.4,5.8
		c-2.3,9.2-4.5,19.6-5.8,30c-4.5,41.5,4.5,82.1,24.3,116.6c28.9,0,41.5-34.7,45.1-57.7c0-5.8,4.5-9.2,13.801-2.3
		c38.1,27.7,62.3,72.8,62.3,123.6c0,84.3-68.101,153.6-152.4,153.6S198.205,297.011,198.205,212.911z"/>
</g>
<g>
</g>
<g>
</g>
<g>
</g>
<g>
</g>
<g>
</g>
<g>
</g>
<g>
</g>
<g>
</g>
<g>
</g>
<g>
</g>
<g>
</g>
<g>
</g>
<g>
</g>
<g>
</g>
<g>
</g>
</svg>
